<mxfile host="app.diagrams.net" modified="2024-04-10T19:40:25.312Z" agent="Mozilla/5.0 (Windows NT 10.0; Win64; x64) AppleWebKit/537.36 (KHTML, like Gecko) Chrome/123.0.0.0 Safari/537.36" etag="GBd41vfmFN5_uQcCofg3" version="24.2.3" type="device">
  <diagram id="LhVTmfn_bVOVVTIXNYQG" name="Page-1">
    <mxGraphModel dx="882" dy="578" grid="1" gridSize="10" guides="1" tooltips="1" connect="1" arrows="1" fold="1" page="1" pageScale="1" pageWidth="850" pageHeight="1100" math="0" shadow="0">
      <root>
        <mxCell id="0" />
        <mxCell id="1" parent="0" />
        <mxCell id="cI6oqYdS22LNSh7-TDvw-1" value="" style="swimlane;startSize=0;" vertex="1" parent="1">
          <mxGeometry x="120" y="200" width="520" height="160" as="geometry" />
        </mxCell>
        <mxCell id="cI6oqYdS22LNSh7-TDvw-18" style="edgeStyle=orthogonalEdgeStyle;rounded=0;orthogonalLoop=1;jettySize=auto;html=1;exitX=0;exitY=0.5;exitDx=0;exitDy=0;entryX=1;entryY=0.5;entryDx=0;entryDy=0;" edge="1" parent="cI6oqYdS22LNSh7-TDvw-1" source="cI6oqYdS22LNSh7-TDvw-9" target="cI6oqYdS22LNSh7-TDvw-10">
          <mxGeometry relative="1" as="geometry" />
        </mxCell>
        <mxCell id="cI6oqYdS22LNSh7-TDvw-9" value="Precomputed PYMK" style="rounded=1;whiteSpace=wrap;html=1;" vertex="1" parent="cI6oqYdS22LNSh7-TDvw-1">
          <mxGeometry x="320" y="40" width="120" height="60" as="geometry" />
        </mxCell>
        <mxCell id="cI6oqYdS22LNSh7-TDvw-10" value="PYMK service" style="rounded=1;whiteSpace=wrap;html=1;" vertex="1" parent="cI6oqYdS22LNSh7-TDvw-1">
          <mxGeometry x="80" y="40" width="120" height="60" as="geometry" />
        </mxCell>
        <mxCell id="cI6oqYdS22LNSh7-TDvw-15" value="Prediction pipeline" style="text;html=1;align=center;verticalAlign=middle;whiteSpace=wrap;rounded=0;" vertex="1" parent="cI6oqYdS22LNSh7-TDvw-1">
          <mxGeometry width="160" height="40" as="geometry" />
        </mxCell>
        <mxCell id="cI6oqYdS22LNSh7-TDvw-2" value="" style="swimlane;startSize=0;" vertex="1" parent="1">
          <mxGeometry x="120" y="440" width="520" height="520" as="geometry" />
        </mxCell>
        <mxCell id="cI6oqYdS22LNSh7-TDvw-20" style="edgeStyle=orthogonalEdgeStyle;rounded=0;orthogonalLoop=1;jettySize=auto;html=1;exitX=0.5;exitY=1;exitDx=0;exitDy=0;entryX=0.5;entryY=0;entryDx=0;entryDy=0;" edge="1" parent="cI6oqYdS22LNSh7-TDvw-2" source="cI6oqYdS22LNSh7-TDvw-3" target="cI6oqYdS22LNSh7-TDvw-4">
          <mxGeometry relative="1" as="geometry" />
        </mxCell>
        <mxCell id="cI6oqYdS22LNSh7-TDvw-3" value="GNN model" style="rounded=1;whiteSpace=wrap;html=1;" vertex="1" parent="cI6oqYdS22LNSh7-TDvw-2">
          <mxGeometry x="320" y="40" width="120" height="60" as="geometry" />
        </mxCell>
        <mxCell id="cI6oqYdS22LNSh7-TDvw-21" style="edgeStyle=orthogonalEdgeStyle;rounded=0;orthogonalLoop=1;jettySize=auto;html=1;exitX=0.5;exitY=0;exitDx=0;exitDy=0;entryX=0.5;entryY=1;entryDx=0;entryDy=0;" edge="1" parent="cI6oqYdS22LNSh7-TDvw-2" source="cI6oqYdS22LNSh7-TDvw-4" target="cI6oqYdS22LNSh7-TDvw-3">
          <mxGeometry relative="1" as="geometry" />
        </mxCell>
        <mxCell id="cI6oqYdS22LNSh7-TDvw-4" value="Scoring service" style="rounded=1;whiteSpace=wrap;html=1;" vertex="1" parent="cI6oqYdS22LNSh7-TDvw-2">
          <mxGeometry x="320" y="160" width="120" height="60" as="geometry" />
        </mxCell>
        <mxCell id="cI6oqYdS22LNSh7-TDvw-23" style="edgeStyle=orthogonalEdgeStyle;rounded=0;orthogonalLoop=1;jettySize=auto;html=1;exitX=0.5;exitY=0;exitDx=0;exitDy=0;entryX=0.5;entryY=1;entryDx=0;entryDy=0;" edge="1" parent="cI6oqYdS22LNSh7-TDvw-2" source="cI6oqYdS22LNSh7-TDvw-5" target="cI6oqYdS22LNSh7-TDvw-4">
          <mxGeometry relative="1" as="geometry" />
        </mxCell>
        <mxCell id="cI6oqYdS22LNSh7-TDvw-5" value="Feature computation" style="rounded=1;whiteSpace=wrap;html=1;" vertex="1" parent="cI6oqYdS22LNSh7-TDvw-2">
          <mxGeometry x="320" y="280" width="120" height="60" as="geometry" />
        </mxCell>
        <mxCell id="cI6oqYdS22LNSh7-TDvw-22" style="edgeStyle=orthogonalEdgeStyle;rounded=0;orthogonalLoop=1;jettySize=auto;html=1;exitX=1;exitY=0.5;exitDx=0;exitDy=0;entryX=0;entryY=0.5;entryDx=0;entryDy=0;" edge="1" parent="cI6oqYdS22LNSh7-TDvw-2" source="cI6oqYdS22LNSh7-TDvw-6" target="cI6oqYdS22LNSh7-TDvw-4">
          <mxGeometry relative="1" as="geometry" />
        </mxCell>
        <mxCell id="cI6oqYdS22LNSh7-TDvw-6" value="FoF service" style="rounded=1;whiteSpace=wrap;html=1;" vertex="1" parent="cI6oqYdS22LNSh7-TDvw-2">
          <mxGeometry x="80" y="160" width="120" height="60" as="geometry" />
        </mxCell>
        <mxCell id="cI6oqYdS22LNSh7-TDvw-24" style="edgeStyle=orthogonalEdgeStyle;rounded=0;orthogonalLoop=1;jettySize=auto;html=1;exitX=0.5;exitY=0;exitDx=0;exitDy=0;entryX=0.5;entryY=1;entryDx=0;entryDy=0;" edge="1" parent="cI6oqYdS22LNSh7-TDvw-2" source="cI6oqYdS22LNSh7-TDvw-7" target="cI6oqYdS22LNSh7-TDvw-5">
          <mxGeometry relative="1" as="geometry" />
        </mxCell>
        <mxCell id="cI6oqYdS22LNSh7-TDvw-7" value="Data lake" style="rounded=1;whiteSpace=wrap;html=1;" vertex="1" parent="cI6oqYdS22LNSh7-TDvw-2">
          <mxGeometry x="320" y="400" width="120" height="60" as="geometry" />
        </mxCell>
        <mxCell id="cI6oqYdS22LNSh7-TDvw-8" value="Generation pipeline" style="text;html=1;align=center;verticalAlign=middle;whiteSpace=wrap;rounded=0;" vertex="1" parent="cI6oqYdS22LNSh7-TDvw-2">
          <mxGeometry width="160" height="40" as="geometry" />
        </mxCell>
        <mxCell id="cI6oqYdS22LNSh7-TDvw-16" style="edgeStyle=orthogonalEdgeStyle;rounded=0;orthogonalLoop=1;jettySize=auto;html=1;exitX=0.5;exitY=1;exitDx=0;exitDy=0;" edge="1" parent="1" source="cI6oqYdS22LNSh7-TDvw-14" target="cI6oqYdS22LNSh7-TDvw-10">
          <mxGeometry relative="1" as="geometry" />
        </mxCell>
        <mxCell id="cI6oqYdS22LNSh7-TDvw-14" value="User" style="rounded=1;whiteSpace=wrap;html=1;" vertex="1" parent="1">
          <mxGeometry x="200" y="80" width="120" height="60" as="geometry" />
        </mxCell>
        <mxCell id="cI6oqYdS22LNSh7-TDvw-17" style="edgeStyle=orthogonalEdgeStyle;rounded=0;orthogonalLoop=1;jettySize=auto;html=1;exitX=0.5;exitY=0;exitDx=0;exitDy=0;" edge="1" parent="1" source="cI6oqYdS22LNSh7-TDvw-10" target="cI6oqYdS22LNSh7-TDvw-14">
          <mxGeometry relative="1" as="geometry" />
        </mxCell>
        <mxCell id="cI6oqYdS22LNSh7-TDvw-19" style="edgeStyle=orthogonalEdgeStyle;rounded=0;orthogonalLoop=1;jettySize=auto;html=1;exitX=0.5;exitY=1;exitDx=0;exitDy=0;" edge="1" parent="1" source="cI6oqYdS22LNSh7-TDvw-10" target="cI6oqYdS22LNSh7-TDvw-2">
          <mxGeometry relative="1" as="geometry">
            <Array as="points">
              <mxPoint x="260" y="400" />
              <mxPoint x="380" y="400" />
            </Array>
          </mxGeometry>
        </mxCell>
        <mxCell id="cI6oqYdS22LNSh7-TDvw-25" style="edgeStyle=orthogonalEdgeStyle;rounded=0;orthogonalLoop=1;jettySize=auto;html=1;exitX=1;exitY=0.5;exitDx=0;exitDy=0;entryX=1;entryY=0.5;entryDx=0;entryDy=0;" edge="1" parent="1" source="cI6oqYdS22LNSh7-TDvw-4" target="cI6oqYdS22LNSh7-TDvw-9">
          <mxGeometry relative="1" as="geometry">
            <Array as="points">
              <mxPoint x="600" y="630" />
              <mxPoint x="600" y="270" />
            </Array>
          </mxGeometry>
        </mxCell>
      </root>
    </mxGraphModel>
  </diagram>
</mxfile>
